<svg xmlns="http://www.w3.org/2000/svg" viewBox="0 0 32 32" fill="none">
  <!-- Ultra-bold chair: max fill, min detail — built for 16×16 tabs -->
  <rect width="32" height="32" rx="7" fill="#1A7A6D"/>
  <!-- One continuous chair silhouette (side view), large in frame -->
  <path fill="#FFFFFF" d="
    M9 27
    h14
    a1.5 1.5 0 0 0 0-3
    h-4.5
    v-5
    h3.2
    a1.2 1.2 0 0 0 1.15-.85
    l2.6-8.2
    a2.2 2.2 0 0 0-1.3-2.75
    l-.35-.12
    a2.2 2.2 0 0 0-2.55 1.05
    L18.8 14.2
    9.6 15.6
    A2.4 2.4 0 0 0 7.6 18.3
    v2.2
    A1.5 1.5 0 0 0 9 22
    h3.5
    v2
    H9
    a1.5 1.5 0 0 0 0 3
    z
  "/>
  <!-- headrest circle -->
  <circle cx="21.5" cy="6.8" r="3.1" fill="#FFFFFF"/>
  <!-- teal legrest tip for brand color pop at larger sizes -->
  <path fill="#B8EDE4" d="M22.2 16.2 26.5 24.5a1.2 1.2 0 0 1-2.1 1.15L20.4 17.2a1 1 0 0 1 1.8-1z"/>
</svg>
