<svg width="142" height="44" viewBox="0 0 142 44" fill="none" xmlns="http://www.w3.org/2000/svg">
<g clip-path="url(#clip0_86_52867)">
<g clip-path="url(#clip1_86_52867)">
<mask id="mask0_86_52867" style="mask-type:luminance" maskUnits="userSpaceOnUse" x="2" y="0" width="140" height="45">
<path d="M141.444 0.220703H2.02148V44.2085H141.444V0.220703Z" fill="white"></path>
</mask>
<g mask="url(#mask0_86_52867)">
<path d="M46.4732 0.363281L42.9629 13.2343H45.3526L46.0236 10.5623H49.2761L49.963 13.2343H52.4379L48.9129 0.363281H46.472H46.4732ZM46.5946 8.38272L47.6606 4.1718L48.6926 8.38272H46.5935H46.5946Z" fill="#1C1C1C"></path>
<path d="M56.3875 8.03582H59.9295V5.74569H56.3875V2.71005H60.4404V0.419922H53.9591V13.2328H56.3875V8.03468V8.03582Z" fill="#1C1C1C"></path>
<path d="M64.5226 8.03582H68.0669V5.74569H64.5226V2.71005H68.5755V0.419922H62.0977V13.2328H64.5226V8.03468V8.03582Z" fill="#1C1C1C"></path>
<path d="M74.4139 13.4321C77.1431 13.4321 79.0254 11.0564 79.0254 7.02334V6.60271C79.0254 2.57646 77.159 0.216797 74.4298 0.216797C71.7006 0.216797 69.8184 2.57988 69.8184 6.62551V7.04614H69.8252C69.8252 11.0724 71.6859 13.4321 74.4174 13.4321H74.4139ZM72.2933 6.70302C72.2933 3.81101 73.1935 2.47387 74.4071 2.47387C75.6207 2.47387 76.5437 3.82697 76.5437 6.71898V6.95495C76.5437 9.84696 75.6434 11.1841 74.4298 11.1841C73.2162 11.1841 72.2933 9.831 72.2933 6.93899V6.70302Z" fill="#1C1C1C"></path>
<path d="M83.4367 8.88915H84.5061L86.4043 13.2266H89.0983L86.8777 8.26446C88.0005 7.62154 88.8133 6.49073 88.8133 4.65543V4.54714C88.8133 3.22823 88.4364 2.22509 87.7655 1.54683C87.0287 0.801313 85.924 0.416016 84.6003 0.416016H81.0117V13.2266H83.4367V8.88915ZM83.4389 2.67195H84.3449C85.6652 2.67195 86.3906 3.33083 86.3906 4.68507C86.3906 5.91164 85.7254 6.71757 84.4016 6.71757H83.4423V2.67195H83.4389Z" fill="#1C1C1C"></path>
<path d="M99.1855 6.97112V6.67816C99.1855 2.74767 97.2124 0.419922 93.9031 0.419922H90.7754V13.2328H93.9031C97.2124 13.2328 99.1855 10.8857 99.1855 6.97112ZM93.2037 11.0008V2.65305H93.8747C95.556 2.65305 96.6981 3.87962 96.6981 6.73288V6.91755C96.6981 9.77422 95.5594 10.9974 93.8747 10.9974H93.2037V11.0008Z" fill="#1C1C1C"></path>
<path d="M102.959 10.5646H106.211L106.898 13.2366H109.377L105.848 0.363281H103.407L99.9004 13.2343H102.291L102.962 10.5623L102.959 10.5657V10.5646ZM104.603 4.1718L105.635 8.38272H103.537L104.603 4.1718Z" fill="#1C1C1C"></path>
<path d="M118.785 9.69491V9.56724C118.785 7.90522 117.86 7.11752 116.648 6.60227C117.554 6.14402 118.424 5.34151 118.424 3.76726V3.6943C118.424 2.77665 118.135 2.08243 117.574 1.5193C116.851 0.773788 115.641 0.423828 114.282 0.423828H110.9V13.2344H114.389C116.992 13.2344 118.781 11.9896 118.781 9.69947L118.785 9.69605V9.69491ZM113.292 2.63758H114.34C115.388 2.63758 116.038 3.14713 116.038 4.15711H116.044V4.17649C116.044 5.16367 115.354 5.73022 114.269 5.73022H113.294V2.63758H113.292ZM113.292 7.8163H114.522C115.676 7.8163 116.383 8.43415 116.383 9.40537V9.42475C116.383 10.4279 115.639 11.0138 114.557 11.0138H113.29V7.81288L113.294 7.8163H113.292Z" fill="#1C1C1C"></path>
<path d="M126.866 10.9438H123.067V0.419922H120.639V13.2328H126.866V10.9427V10.9438Z" fill="#1C1C1C"></path>
<path d="M135.134 10.9598H130.88V7.92411H134.572V5.65336H130.88V2.69181H135.061V0.419922H128.477V13.2305H135.133V10.9598H135.134Z" fill="#1C1C1C"></path>
<path d="M55.8523 15.8535H52.7246V28.6664H55.8523C59.1616 28.6664 61.1347 26.3193 61.1347 22.4047V22.1118C61.1347 18.1813 59.1616 15.8535 55.8523 15.8535ZM58.6417 22.3511C58.6417 25.2078 57.503 26.431 55.8182 26.431H55.1473V18.0889H55.8182C57.503 18.0889 58.6417 19.3155 58.6417 22.1688V22.35V22.3511Z" fill="#1C1C1C"></path>
<path d="M69.649 18.1208V15.8535H63.0645V28.6607H69.7206V26.3922H65.4701V23.3543H69.162V21.0858H65.4701V18.1208H69.6479H69.649Z" fill="#1C1C1C"></path>
<path d="M79.9098 15.8535H77.5416V22.8447L73.9406 15.8535H71.6973V28.6664H74.0689V21.3788L77.8107 28.6664H79.9098V15.8535Z" fill="#1C1C1C"></path>
<path d="M88.7842 15.8535H81.5469V18.1596H83.9525V28.6675H86.3775V18.1596H88.7831V15.8535H88.7842Z" fill="#1C1C1C"></path>
<path d="M98.4104 24.2543V15.8496H96.0048V24.4174C96.0048 25.8981 95.3804 26.5798 94.3984 26.5798C93.4163 26.5798 92.7863 25.8856 92.7863 24.4048V15.8564H90.3613V24.2749C90.3613 27.3675 91.9734 28.8483 94.3802 28.8483C96.787 28.8483 98.4116 27.3835 98.4116 24.2521V24.2555L98.4104 24.2543Z" fill="#1C1C1C"></path>
<path d="M106.57 23.701C107.693 23.0581 108.509 21.9273 108.509 20.092V19.9837C108.509 18.6648 108.132 17.6616 107.461 16.9834C106.724 16.2378 105.62 15.8525 104.3 15.8525H100.72L100.711 15.8457V28.6586H103.136V24.3211H104.202L106.102 28.6586H108.796L106.569 23.6964V23.6999L106.57 23.701ZM104.097 22.1507H103.138V18.1062H104.044C105.364 18.1062 106.09 18.7651 106.09 20.1193C106.09 21.3493 105.425 22.1518 104.101 22.1518H104.097V22.1507Z" fill="#1C1C1C"></path>
<path d="M117.132 26.3922H112.881V23.3543H116.573V21.0858H112.881V18.1208H117.059V15.8535H110.475V28.6607H117.131V26.3922H117.132Z" fill="#1C1C1C"></path>
<path d="M121.961 23.342C123.392 24.2026 123.68 24.6449 123.68 25.2115C123.68 25.941 123.156 26.5304 122.271 26.5304C121.202 26.5304 120.389 25.721 119.846 25.1932L118.396 27.0981V27.1049C119.642 28.3691 121.035 28.8091 122.302 28.8091C124.432 28.8091 126.116 27.3055 126.116 25.1077V25.0724C126.116 23.3682 125.191 22.381 123.4 21.2627C121.646 20.1673 121.354 19.725 121.354 19.1219C121.354 18.4437 121.897 18.0037 122.621 18.0037C123.505 18.0037 124.211 18.6055 124.667 19.0991L126.15 17.2171C125.138 16.1376 123.816 15.7363 122.734 15.7363C120.476 15.7363 118.92 17.1977 118.92 19.3579V19.3932C118.92 21.1829 120.043 22.1929 121.959 23.3454V23.342H121.961Z" fill="#1C1C1C"></path>
<path d="M141.445 22.3892L140.168 21.0509L137.209 24.2769L135.138 22.095L135.684 21.687C135.907 21.5217 136.127 21.337 136.334 21.1364C136.544 20.9289 136.732 20.7157 136.892 20.4775C137.059 20.2415 137.187 19.9896 137.291 19.716C137.388 19.4424 137.438 19.1552 137.438 18.8462C137.438 18.372 137.351 17.9445 137.184 17.5592C137.012 17.1774 136.777 16.8491 136.472 16.5755C136.168 16.3076 135.807 16.0979 135.393 15.9485C134.976 15.7992 134.524 15.7285 134.035 15.7285C133.624 15.7285 133.222 15.7958 132.823 15.9383C132.428 16.0819 132.071 16.2882 131.757 16.5629C131.441 16.8365 131.186 17.1717 130.996 17.5661C130.802 17.9605 130.707 18.4199 130.707 18.9386C130.707 19.2384 130.757 19.5154 130.848 19.7821C130.939 20.05 131.058 20.2985 131.199 20.5276C131.34 20.7602 131.494 20.9768 131.656 21.1774C131.82 21.378 131.977 21.5536 132.13 21.7063L132.336 21.9389L132.214 22.0244C131.888 22.2729 131.593 22.5145 131.329 22.7505C131.066 22.9865 130.844 23.2441 130.655 23.5211C130.467 23.7981 130.326 24.0979 130.219 24.416C130.112 24.734 130.062 25.0851 130.062 25.4955C130.062 25.9058 130.137 26.3139 130.295 26.7084C130.452 27.1039 130.694 27.4539 131.007 27.7628C131.32 28.0717 131.71 28.3168 132.171 28.5083C132.635 28.6998 133.162 28.7922 133.758 28.7922C134.436 28.7922 135.05 28.6394 135.599 28.3305C136.149 28.0216 136.672 27.6009 137.161 27.0697V27.0766L138.996 28.9848L140.345 27.5394L138.471 25.6026L141.445 22.3823L141.441 22.3892H141.445ZM132.83 18.2204C132.912 18.0449 133.019 17.9046 133.144 17.7941C133.269 17.6789 133.414 17.6003 133.57 17.5456C133.727 17.4886 133.891 17.4624 134.053 17.4624C134.461 17.4624 134.79 17.59 135.051 17.8545C135.311 18.1121 135.437 18.4313 135.437 18.8132C135.437 19.0491 135.387 19.2908 135.264 19.5234C134.898 20.2335 133.88 20.7853 133.88 20.7853C133.88 20.7853 133.391 20.3236 132.948 19.6579C132.783 19.4059 132.704 19.1232 132.704 18.8143C132.704 18.5943 132.745 18.3937 132.827 18.2216H132.83V18.2204ZM135.867 25.7497C135.554 26.0905 135.227 26.3744 134.901 26.6001C134.575 26.8201 134.205 26.9341 133.796 26.9341V26.9432C133.542 26.9432 133.307 26.8953 133.106 26.8098C132.9 26.7175 132.729 26.6001 132.588 26.4439C132.448 26.2911 132.338 26.1259 132.263 25.9412C132.188 25.7565 132.149 25.565 132.149 25.3644C132.149 24.9472 132.24 24.6063 132.428 24.3362C132.617 24.0626 132.861 23.8163 133.165 23.5906L133.585 23.2726L135.879 25.7383L135.863 25.7542L135.866 25.7508L135.867 25.7497Z" fill="#1C1C1C"></path>
<path d="M64.6849 31.2656H62.2793V44.0785H64.6849V31.2656Z" fill="#1C1C1C"></path>
<path d="M71.7687 36.2243L69.5481 31.2656H67.0664V44.0785H69.4005V36.132L71.7347 41.1865H71.7687L74.1028 36.0967V44.0785H76.4744V31.2656H73.9779L71.7698 36.2243H71.7687Z" fill="#1C1C1C"></path>
<path d="M81.9955 31.2656H78.8496V44.0762H81.2746V40.1241H82.0681C84.5305 40.0158 86.3753 38.5851 86.3753 35.6589V35.6236C86.3753 32.7726 84.6372 31.2702 81.9966 31.2702V31.2668L81.9955 31.2656ZM81.9046 37.8943H81.2677V33.5216H81.9205C83.2942 33.5216 83.9277 34.3081 83.9277 35.7193C83.9277 37.0155 83.2408 37.8943 81.9046 37.8943Z" fill="#1C1C1C"></path>
<path d="M90.4191 31.2656H87.9941V44.0785H94.2177V41.7884H90.4191V31.2656Z" fill="#1C1C1C"></path>
<path d="M98.96 31.2148L95.4531 44.0858H97.844L98.515 41.4138H101.768L102.454 44.0858H104.929L101.401 31.2148H98.96ZM99.0826 39.232L100.149 35.0211L101.181 39.232H99.0815H99.0826Z" fill="#1C1C1C"></path>
<path d="M112.298 38.2603L108.696 31.2656H106.453V44.0785H108.821V36.7909L112.563 44.0785H114.665V31.2656H112.296V38.2603H112.298Z" fill="#1C1C1C"></path>
<path d="M116.306 33.5717H118.711V44.0796H121.136V33.5717H123.542V31.2656H116.305V33.5717H116.306Z" fill="#1C1C1C"></path>
<path d="M128.609 33.4119C129.493 33.4119 130.199 34.0137 130.654 34.5073L132.138 32.6253C131.126 31.5458 129.804 31.1445 128.722 31.1445C126.461 31.1445 124.904 32.6059 124.904 34.7661V34.8014C124.904 36.5911 126.027 37.6011 127.944 38.7536C129.372 39.6131 129.663 40.0565 129.663 40.6231C129.663 41.3526 129.14 41.942 128.254 41.942C127.185 41.942 126.372 41.1326 125.829 40.6048L124.381 42.5097H124.388C125.633 43.7739 127.026 44.2139 128.293 44.2139C130.423 44.2139 132.108 42.7171 132.108 40.5194V40.484C132.108 38.7798 131.182 37.7926 129.391 36.6744C127.638 35.5789 127.345 35.1354 127.345 34.5336C127.345 33.8553 127.891 33.4153 128.612 33.4153L128.609 33.4119Z" fill="#1C1C1C"></path>
<path d="M136.298 31.636C136.151 31.4833 135.972 31.359 135.772 31.2701C135.567 31.1835 135.355 31.1367 135.119 31.1367C134.883 31.1367 134.67 31.1846 134.469 31.2701C134.265 31.3556 134.092 31.4798 133.943 31.636C133.789 31.7888 133.672 31.97 133.585 32.1775C133.498 32.3849 133.459 32.6038 133.459 32.8364C133.459 33.0689 133.5 33.2946 133.585 33.4987C133.672 33.7061 133.795 33.884 133.943 34.0401C134.09 34.1929 134.268 34.3171 134.469 34.406C134.674 34.4927 134.886 34.5394 135.119 34.5394C135.351 34.5394 135.567 34.4915 135.772 34.406C135.969 34.3206 136.148 34.1963 136.298 34.0401C136.452 33.8874 136.574 33.7061 136.659 33.4987C136.747 33.2912 136.791 33.0655 136.791 32.8364C136.791 32.6072 136.744 32.3838 136.659 32.1775C136.568 31.97 136.453 31.7922 136.298 31.636ZM136.307 33.3721C136.242 33.5408 136.151 33.6811 136.032 33.8053C135.916 33.9227 135.784 34.0219 135.624 34.0891C135.467 34.1564 135.298 34.1906 135.115 34.1906C134.933 34.1906 134.765 34.1553 134.607 34.0891C134.45 34.0219 134.318 33.9296 134.199 33.8053C134.083 33.6811 133.993 33.5374 133.927 33.3721C133.861 33.2034 133.827 33.0279 133.827 32.8375C133.827 32.6471 133.861 32.4716 133.927 32.3086C133.998 32.1433 134.083 32.0065 134.199 31.8822C134.312 31.7648 134.45 31.6656 134.607 31.5984C134.763 31.5311 134.933 31.4969 135.115 31.4969C135.298 31.4969 135.466 31.5323 135.624 31.5984C135.777 31.6656 135.912 31.758 136.032 31.8822C136.147 31.9996 136.242 32.1433 136.307 32.3086C136.373 32.4739 136.407 32.6494 136.407 32.8375C136.407 33.0256 136.373 33.2068 136.307 33.3721Z" fill="#1C1C1C"></path>
<path d="M135.733 32.8291C135.799 32.7368 135.837 32.6216 135.837 32.4951C135.837 32.4119 135.821 32.3355 135.79 32.2626C135.758 32.1896 135.715 32.1292 135.658 32.0779C135.602 32.0209 135.536 31.9787 135.461 31.9502C135.386 31.9217 135.304 31.9023 135.217 31.9023H134.539V33.7433H134.931V33.081H135.057L135.402 33.7433H135.85L135.464 33.0332C135.578 32.9921 135.669 32.918 135.734 32.8257V32.8291H135.733ZM135.36 32.6798C135.31 32.7277 135.237 32.747 135.146 32.747H134.924V32.2375H135.146C135.237 32.2375 135.31 32.2569 135.36 32.3047C135.41 32.3526 135.435 32.4199 135.435 32.4962C135.435 32.5726 135.41 32.6365 135.36 32.6809V32.6798Z" fill="#1C1C1C"></path>
</g>
<path d="M44.2884 23.9578L44.2816 23.9647L44.2782 23.9613C43.6163 22.8179 42.3925 22.053 40.987 22.053H32.7551L31.6482 29.5264C31.0874 32.4549 29.3039 34.8225 26.4192 34.8225H22.5831L22.6115 34.9844L23.5174 40.227C24.001 42.5331 25.5723 44.0811 27.6771 44.0811H38.8788C40.9779 44.0811 42.2755 42.3575 42.6842 40.227L44.7232 26.4645C44.8515 25.605 44.7232 24.7091 44.2872 23.9578H44.2884ZM22.3367 23.0117C23.0077 22.4132 23.8898 22.053 24.8491 22.053H32.7563L34.4512 10.6149C34.6283 9.43279 34.4512 8.2028 33.8518 7.17002L33.8427 7.17914L33.8382 7.17458C32.9288 5.60375 31.2475 4.55273 29.3164 4.55273H7.13997C5.82078 4.55273 4.60945 5.04747 3.6876 5.8705C2.33322 7.07769 1.75991 8.96884 2.07438 10.7722L4.06565 22.322L5.31104 29.5264C5.97518 32.6954 8.13447 34.8225 11.0271 34.8225H22.5842L21.1629 26.5797C20.9335 25.2676 21.3513 23.8917 22.3356 23.0128L22.3367 23.0117Z" fill="#1C1C1C"></path>
</g>
</g>
<defs>
<clipPath id="clip0_86_52867">
<rect width="140.8" height="44" fill="white" transform="translate(0.328125)"></rect>
</clipPath>
<clipPath id="clip1_86_52867">
<rect width="139.455" height="43.9946" fill="white" transform="translate(1.99023 0.216797)"></rect>
</clipPath>
</defs>
</svg>
