<svg xmlns="http://www.w3.org/2000/svg" viewBox="0 0 220 48" fill="none" role="img" aria-label="TempChair">
  <!-- Outline chair mark -->
  <g transform="translate(0,0)">
    <path d="M16 40h16" stroke="#0F2A33" stroke-width="2.25" stroke-linecap="round"/>
    <path d="M24 32v8" stroke="#0F2A33" stroke-width="2.25" stroke-linecap="round"/>
    <path d="M18 32h12" stroke="#0F2A33" stroke-width="2.25" stroke-linecap="round"/>
    <path d="M12 24.5c0-1 .7-1.85 1.7-2L28 20.5c1.2-.15 2.3.7 2.45 1.9l.2 1.7c.12 1-.6 1.9-1.6 2.05L14 28c-1.1.15-2.1-.6-2.25-1.7L12 24.5Z" stroke="#0F2A33" stroke-width="2.25" stroke-linejoin="round"/>
    <path d="M29.5 24.5c.5-.15 1.05.1 1.25.55L35 32.5" stroke="#1A7A6D" stroke-width="2.5" stroke-linecap="round"/>
    <path d="M25.5 12.5 29 20.5l-4 2.2-2.8-7c-.35-.9.2-1.9 1.1-2.15l2.2-.55Z" stroke="#0F2A33" stroke-width="2.25" stroke-linejoin="round"/>
    <path d="M27.5 9c1.1-.85 2.65-.55 3.3.65.55 1 .3 2.25-.7 2.9" stroke="#0F2A33" stroke-width="2.25" stroke-linecap="round" stroke-linejoin="round"/>
    <ellipse cx="29.2" cy="9.8" rx="2.2" ry="2.6" stroke="#0F2A33" stroke-width="2.25"/>
    <path d="M14 22.5c-2 .4-3.4 1.5-3.6 2.9M10.5 25h4.5" stroke="#0F2A33" stroke-width="2.25" stroke-linecap="round"/>
  </g>
  <!-- Wordmark uses system UI / Geist-like sans — site font when rendered in app -->
  <text x="54" y="32" font-family="ui-sans-serif, system-ui, -apple-system, 'Segoe UI', sans-serif" font-size="26" font-weight="700" letter-spacing="-0.03em">
    <tspan fill="#0F2A33">Temp</tspan><tspan fill="#1A7A6D">Chair</tspan>
  </text>
</svg>
